<svg width="1365" height="1058" viewBox="0 0 1365 1058" fill="none" xmlns="http://www.w3.org/2000/svg">
<rect x="137.558" y="480.707" width="486" height="198" rx="99" transform="rotate(43.7225 137.558 480.707)" fill="#D9D9D9" stroke="#9F9F9F"/>
<circle cx="231.755" cy="708.473" r="72" transform="rotate(43.7225 231.755 708.473)" fill="#FFC700"/>
<path d="M216.01 668.509V668.509C227.144 660.359 241.437 673.914 233.355 685.097V685.097" stroke="black" stroke-width="3" stroke-linecap="round"/>
<path d="M254.313 705.141V705.141C265.447 696.991 279.74 710.546 271.658 721.729V721.729" stroke="black" stroke-width="3" stroke-linecap="round"/>
<mask id="path-5-inside-1_107_468" fill="white">
<path d="M249.729 737.424C251.725 739.333 251.813 742.528 249.662 744.259C247.036 746.373 244.139 748.137 241.041 749.502C236.415 751.541 231.432 752.648 226.377 752.761C221.322 752.873 216.295 751.989 211.582 750.159C206.869 748.329 202.563 745.588 198.909 742.094C195.255 738.599 192.325 734.42 190.287 729.793C188.248 725.166 187.141 720.183 187.028 715.128C186.915 710.074 187.799 705.047 189.63 700.334C190.855 697.178 192.488 694.205 194.483 691.488C196.117 689.262 199.313 689.207 201.308 691.116L225.519 714.27L249.729 737.424Z"/>
</mask>
<path d="M249.729 737.424C251.725 739.333 251.813 742.528 249.662 744.259C247.036 746.373 244.139 748.137 241.041 749.502C236.415 751.541 231.432 752.648 226.377 752.761C221.322 752.873 216.295 751.989 211.582 750.159C206.869 748.329 202.563 745.588 198.909 742.094C195.255 738.599 192.325 734.42 190.287 729.793C188.248 725.166 187.141 720.183 187.028 715.128C186.915 710.074 187.799 705.047 189.63 700.334C190.855 697.178 192.488 694.205 194.483 691.488C196.117 689.262 199.313 689.207 201.308 691.116L225.519 714.27L249.729 737.424Z" fill="black" stroke="black" stroke-width="2" mask="url(#path-5-inside-1_107_468)"/>
<circle cx="348.204" cy="823.992" r="72" transform="rotate(43.7225 348.204 823.992)" fill="url(#paint0_linear_107_468)"/>
<path d="M332.459 784.028V784.028C343.592 775.879 357.886 789.434 349.804 800.616V800.616" stroke="black" stroke-width="3" stroke-linecap="round"/>
<path d="M370.762 820.66V820.66C381.895 812.51 396.189 826.065 388.107 837.248V837.248" stroke="black" stroke-width="3" stroke-linecap="round"/>
<mask id="path-9-inside-2_107_468" fill="white">
<path d="M366.178 852.944C368.173 854.852 368.262 858.047 366.111 859.779C363.485 861.893 360.588 863.657 357.49 865.022C352.863 867.06 347.88 868.167 342.826 868.28C337.771 868.393 332.744 867.509 328.031 865.679C323.318 863.848 319.011 861.108 315.357 857.613C311.704 854.119 308.774 849.939 306.735 845.312C304.697 840.686 303.59 835.703 303.477 830.648C303.364 825.593 304.248 820.566 306.078 815.853C307.304 812.698 308.937 809.724 310.932 807.007C312.566 804.781 315.761 804.727 317.757 806.636L341.967 829.79L366.178 852.944Z"/>
</mask>
<path d="M366.178 852.944C368.173 854.852 368.262 858.047 366.111 859.779C363.485 861.893 360.588 863.657 357.49 865.022C352.863 867.06 347.88 868.167 342.826 868.28C337.771 868.393 332.744 867.509 328.031 865.679C323.318 863.848 319.011 861.108 315.357 857.613C311.704 854.119 308.774 849.939 306.735 845.312C304.697 840.686 303.59 835.703 303.477 830.648C303.364 825.593 304.248 820.566 306.078 815.853C307.304 812.698 308.937 809.724 310.932 807.007C312.566 804.781 315.761 804.727 317.757 806.636L341.967 829.79L366.178 852.944Z" fill="black" stroke="black" stroke-width="2" mask="url(#path-9-inside-2_107_468)"/>
<rect x="948.917" y="581.76" width="486" height="198" rx="99" transform="rotate(142.966 948.917 581.76)" fill="#D9D9D9" stroke="#9F9F9F"/>
<circle cx="708.978" cy="638.147" r="72" transform="rotate(142.966 708.978 638.147)" fill="#FFC700"/>
<path d="M750.952 629.027V629.027C757.207 641.324 741.532 653.255 731.793 643.481V643.481" stroke="black" stroke-width="3" stroke-linecap="round"/>
<path d="M708.643 660.948V660.948C714.898 673.246 699.223 685.176 689.484 675.403V675.403" stroke="black" stroke-width="3" stroke-linecap="round"/>
<mask id="path-14-inside-3_107_468" fill="white">
<path d="M677.515 651.237C675.311 652.9 672.143 652.474 670.779 650.073C669.115 647.142 667.839 643.999 666.989 640.722C665.721 635.828 665.428 630.732 666.129 625.725C666.83 620.717 668.51 615.897 671.073 611.54C673.637 607.182 677.033 603.371 681.069 600.326C685.105 597.281 689.702 595.061 694.596 593.792C699.49 592.523 704.586 592.231 709.593 592.932C714.6 593.632 719.42 595.312 723.778 597.876C726.696 599.592 729.368 601.682 731.729 604.087C733.664 606.058 733.204 609.22 731 610.884L704.257 631.06L677.515 651.237Z"/>
</mask>
<path d="M677.515 651.237C675.311 652.9 672.143 652.474 670.779 650.073C669.115 647.142 667.839 643.999 666.989 640.722C665.721 635.828 665.428 630.732 666.129 625.725C666.83 620.717 668.51 615.897 671.073 611.54C673.637 607.182 677.033 603.371 681.069 600.326C685.105 597.281 689.702 595.061 694.596 593.792C699.49 592.523 704.586 592.231 709.593 592.932C714.6 593.632 719.42 595.312 723.778 597.876C726.696 599.592 729.368 601.682 731.729 604.087C733.664 606.058 733.204 609.22 731 610.884L704.257 631.06L677.515 651.237Z" fill="black" stroke="black" stroke-width="2" mask="url(#path-14-inside-3_107_468)"/>
<circle cx="576.253" cy="734.527" r="72" transform="rotate(142.966 576.253 734.527)" fill="url(#paint1_linear_107_468)"/>
<path d="M618.227 725.406V725.406C624.482 737.704 608.807 749.634 599.068 739.861V739.861" stroke="black" stroke-width="3" stroke-linecap="round"/>
<path d="M575.918 757.328V757.328C582.174 769.626 566.499 781.556 556.759 771.783V771.783" stroke="black" stroke-width="3" stroke-linecap="round"/>
<mask id="path-18-inside-4_107_468" fill="white">
<path d="M544.79 747.617C542.586 749.28 539.418 748.854 538.054 746.453C536.39 743.522 535.114 740.379 534.264 737.102C532.996 732.208 532.703 727.112 533.404 722.105C534.105 717.098 535.785 712.278 538.348 707.92C540.912 703.562 544.308 699.752 548.344 696.707C552.38 693.662 556.977 691.441 561.871 690.173C566.765 688.904 571.861 688.611 576.868 689.312C581.875 690.013 586.695 691.693 591.053 694.256C593.971 695.973 596.643 698.062 599.004 700.468C600.939 702.438 600.479 705.601 598.275 707.264L571.532 727.441L544.79 747.617Z"/>
</mask>
<path d="M544.79 747.617C542.586 749.28 539.418 748.854 538.054 746.453C536.39 743.522 535.114 740.379 534.264 737.102C532.996 732.208 532.703 727.112 533.404 722.105C534.105 717.098 535.785 712.278 538.348 707.92C540.912 703.562 544.308 699.752 548.344 696.707C552.38 693.662 556.977 691.441 561.871 690.173C566.765 688.904 571.861 688.611 576.868 689.312C581.875 690.013 586.695 691.693 591.053 694.256C593.971 695.973 596.643 698.062 599.004 700.468C600.939 702.438 600.479 705.601 598.275 707.264L571.532 727.441L544.79 747.617Z" fill="black" stroke="black" stroke-width="2" mask="url(#path-18-inside-4_107_468)"/>
<rect x="1002.56" y="577.707" width="486" height="198" rx="99" transform="rotate(43.7225 1002.56 577.707)" fill="#D9D9D9" stroke="#9F9F9F"/>
<circle cx="1096.75" cy="805.473" r="72" transform="rotate(43.7225 1096.75 805.473)" fill="#FFC700"/>
<path d="M1081.01 765.509V765.509C1092.14 757.359 1106.44 770.914 1098.36 782.097V782.097" stroke="black" stroke-width="3" stroke-linecap="round"/>
<path d="M1119.31 802.141V802.141C1130.45 793.991 1144.74 807.546 1136.66 818.729V818.729" stroke="black" stroke-width="3" stroke-linecap="round"/>
<mask id="path-23-inside-5_107_468" fill="white">
<path d="M1114.73 834.424C1116.72 836.333 1116.81 839.528 1114.66 841.259C1112.04 843.373 1109.14 845.137 1106.04 846.502C1101.41 848.541 1096.43 849.648 1091.38 849.761C1086.32 849.873 1081.3 848.989 1076.58 847.159C1071.87 845.329 1067.56 842.588 1063.91 839.094C1060.25 835.599 1057.33 831.42 1055.29 826.793C1053.25 822.166 1052.14 817.183 1052.03 812.128C1051.92 807.074 1052.8 802.047 1054.63 797.334C1055.85 794.178 1057.49 791.205 1059.48 788.488C1061.12 786.262 1064.31 786.207 1066.31 788.116L1090.52 811.27L1114.73 834.424Z"/>
</mask>
<path d="M1114.73 834.424C1116.72 836.333 1116.81 839.528 1114.66 841.259C1112.04 843.373 1109.14 845.137 1106.04 846.502C1101.41 848.541 1096.43 849.648 1091.38 849.761C1086.32 849.873 1081.3 848.989 1076.58 847.159C1071.87 845.329 1067.56 842.588 1063.91 839.094C1060.25 835.599 1057.33 831.42 1055.29 826.793C1053.25 822.166 1052.14 817.183 1052.03 812.128C1051.92 807.074 1052.8 802.047 1054.63 797.334C1055.85 794.178 1057.49 791.205 1059.48 788.488C1061.12 786.262 1064.31 786.207 1066.31 788.116L1090.52 811.27L1114.73 834.424Z" fill="black" stroke="black" stroke-width="2" mask="url(#path-23-inside-5_107_468)"/>
<circle cx="1213.2" cy="920.992" r="72" transform="rotate(43.7225 1213.2 920.992)" fill="url(#paint2_linear_107_468)"/>
<path d="M1197.46 881.028V881.028C1208.59 872.879 1222.89 886.434 1214.8 897.616V897.616" stroke="black" stroke-width="3" stroke-linecap="round"/>
<path d="M1235.76 917.66V917.66C1246.9 909.51 1261.19 923.065 1253.11 934.248V934.248" stroke="black" stroke-width="3" stroke-linecap="round"/>
<mask id="path-27-inside-6_107_468" fill="white">
<path d="M1231.18 949.944C1233.17 951.852 1233.26 955.047 1231.11 956.779C1228.49 958.893 1225.59 960.657 1222.49 962.022C1217.86 964.06 1212.88 965.167 1207.83 965.28C1202.77 965.393 1197.74 964.509 1193.03 962.679C1188.32 960.848 1184.01 958.108 1180.36 954.613C1176.7 951.119 1173.77 946.939 1171.74 942.312C1169.7 937.686 1168.59 932.703 1168.48 927.648C1168.36 922.593 1169.25 917.566 1171.08 912.853C1172.3 909.698 1173.94 906.724 1175.93 904.007C1177.57 901.781 1180.76 901.727 1182.76 903.636L1206.97 926.79L1231.18 949.944Z"/>
</mask>
<path d="M1231.18 949.944C1233.17 951.852 1233.26 955.047 1231.11 956.779C1228.49 958.893 1225.59 960.657 1222.49 962.022C1217.86 964.06 1212.88 965.167 1207.83 965.28C1202.77 965.393 1197.74 964.509 1193.03 962.679C1188.32 960.848 1184.01 958.108 1180.36 954.613C1176.7 951.119 1173.77 946.939 1171.74 942.312C1169.7 937.686 1168.59 932.703 1168.48 927.648C1168.36 922.593 1169.25 917.566 1171.08 912.853C1172.3 909.698 1173.94 906.724 1175.93 904.007C1177.57 901.781 1180.76 901.727 1182.76 903.636L1206.97 926.79L1231.18 949.944Z" fill="black" stroke="black" stroke-width="2" mask="url(#path-27-inside-6_107_468)"/>
<rect x="764.558" y="65.7069" width="486" height="198" rx="99" transform="rotate(43.7225 764.558 65.7069)" fill="#D9D9D9" stroke="#9F9F9F"/>
<circle cx="858.755" cy="293.473" r="72" transform="rotate(43.7225 858.755 293.473)" fill="#FFC700"/>
<path d="M843.01 253.509V253.509C854.144 245.359 868.437 258.914 860.355 270.097V270.097" stroke="black" stroke-width="3" stroke-linecap="round"/>
<path d="M881.313 290.141V290.141C892.447 281.991 906.74 295.546 898.658 306.729V306.729" stroke="black" stroke-width="3" stroke-linecap="round"/>
<mask id="path-32-inside-7_107_468" fill="white">
<path d="M876.729 322.424C878.725 324.333 878.813 327.528 876.662 329.259C874.036 331.373 871.139 333.137 868.041 334.502C863.415 336.541 858.432 337.648 853.377 337.761C848.322 337.873 843.295 336.989 838.582 335.159C833.869 333.329 829.563 330.588 825.909 327.094C822.255 323.599 819.325 319.42 817.287 314.793C815.248 310.166 814.141 305.183 814.028 300.128C813.915 295.074 814.799 290.047 816.63 285.334C817.855 282.178 819.488 279.205 821.483 276.488C823.117 274.262 826.313 274.207 828.308 276.116L852.519 299.27L876.729 322.424Z"/>
</mask>
<path d="M876.729 322.424C878.725 324.333 878.813 327.528 876.662 329.259C874.036 331.373 871.139 333.137 868.041 334.502C863.415 336.541 858.432 337.648 853.377 337.761C848.322 337.873 843.295 336.989 838.582 335.159C833.869 333.329 829.563 330.588 825.909 327.094C822.255 323.599 819.325 319.42 817.287 314.793C815.248 310.166 814.141 305.183 814.028 300.128C813.915 295.074 814.799 290.047 816.63 285.334C817.855 282.178 819.488 279.205 821.483 276.488C823.117 274.262 826.313 274.207 828.308 276.116L852.519 299.27L876.729 322.424Z" fill="black" stroke="black" stroke-width="2" mask="url(#path-32-inside-7_107_468)"/>
<circle cx="975.204" cy="408.992" r="72" transform="rotate(43.7225 975.204 408.992)" fill="url(#paint3_linear_107_468)"/>
<path d="M959.459 369.028V369.028C970.592 360.879 984.886 374.434 976.804 385.616V385.616" stroke="black" stroke-width="3" stroke-linecap="round"/>
<path d="M997.762 405.66V405.66C1008.9 397.51 1023.19 411.065 1015.11 422.248V422.248" stroke="black" stroke-width="3" stroke-linecap="round"/>
<mask id="path-36-inside-8_107_468" fill="white">
<path d="M993.178 437.944C995.173 439.852 995.262 443.047 993.111 444.779C990.485 446.893 987.588 448.657 984.49 450.022C979.863 452.06 974.88 453.167 969.826 453.28C964.771 453.393 959.744 452.509 955.031 450.679C950.318 448.848 946.011 446.108 942.357 442.613C938.704 439.119 935.774 434.939 933.735 430.312C931.697 425.686 930.59 420.703 930.477 415.648C930.364 410.593 931.248 405.566 933.078 400.853C934.304 397.698 935.937 394.724 937.932 392.007C939.566 389.781 942.761 389.727 944.757 391.636L968.967 414.79L993.178 437.944Z"/>
</mask>
<path d="M993.178 437.944C995.173 439.852 995.262 443.047 993.111 444.779C990.485 446.893 987.588 448.657 984.49 450.022C979.863 452.06 974.88 453.167 969.826 453.28C964.771 453.393 959.744 452.509 955.031 450.679C950.318 448.848 946.011 446.108 942.357 442.613C938.704 439.119 935.774 434.939 933.735 430.312C931.697 425.686 930.59 420.703 930.477 415.648C930.364 410.593 931.248 405.566 933.078 400.853C934.304 397.698 935.937 394.724 937.932 392.007C939.566 389.781 942.761 389.727 944.757 391.636L968.967 414.79L993.178 437.944Z" fill="black" stroke="black" stroke-width="2" mask="url(#path-36-inside-8_107_468)"/>
<rect x="1012.56" y="0.706931" width="486" height="198" rx="99" transform="rotate(43.7225 1012.56 0.706931)" fill="#D9D9D9" stroke="#9F9F9F"/>
<circle cx="1106.75" cy="228.473" r="72" transform="rotate(43.7225 1106.75 228.473)" fill="#FFC700"/>
<path d="M1091.01 188.509V188.509C1102.14 180.359 1116.44 193.914 1108.36 205.097V205.097" stroke="black" stroke-width="3" stroke-linecap="round"/>
<path d="M1129.31 225.141V225.141C1140.45 216.991 1154.74 230.546 1146.66 241.729V241.729" stroke="black" stroke-width="3" stroke-linecap="round"/>
<mask id="path-41-inside-9_107_468" fill="white">
<path d="M1124.73 257.424C1126.72 259.333 1126.81 262.528 1124.66 264.259C1122.04 266.373 1119.14 268.137 1116.04 269.502C1111.41 271.541 1106.43 272.648 1101.38 272.761C1096.32 272.873 1091.3 271.989 1086.58 270.159C1081.87 268.329 1077.56 265.588 1073.91 262.094C1070.25 258.599 1067.33 254.42 1065.29 249.793C1063.25 245.166 1062.14 240.183 1062.03 235.128C1061.92 230.074 1062.8 225.047 1064.63 220.334C1065.85 217.178 1067.49 214.205 1069.48 211.488C1071.12 209.262 1074.31 209.207 1076.31 211.116L1100.52 234.27L1124.73 257.424Z"/>
</mask>
<path d="M1124.73 257.424C1126.72 259.333 1126.81 262.528 1124.66 264.259C1122.04 266.373 1119.14 268.137 1116.04 269.502C1111.41 271.541 1106.43 272.648 1101.38 272.761C1096.32 272.873 1091.3 271.989 1086.58 270.159C1081.87 268.329 1077.56 265.588 1073.91 262.094C1070.25 258.599 1067.33 254.42 1065.29 249.793C1063.25 245.166 1062.14 240.183 1062.03 235.128C1061.92 230.074 1062.8 225.047 1064.63 220.334C1065.85 217.178 1067.49 214.205 1069.48 211.488C1071.12 209.262 1074.31 209.207 1076.31 211.116L1100.52 234.27L1124.73 257.424Z" fill="black" stroke="black" stroke-width="2" mask="url(#path-41-inside-9_107_468)"/>
<circle cx="1223.2" cy="343.992" r="72" transform="rotate(43.7225 1223.2 343.992)" fill="url(#paint4_linear_107_468)"/>
<path d="M1207.46 304.028V304.028C1218.59 295.879 1232.89 309.434 1224.8 320.616V320.616" stroke="black" stroke-width="3" stroke-linecap="round"/>
<path d="M1245.76 340.66V340.66C1256.9 332.51 1271.19 346.065 1263.11 357.248V357.248" stroke="black" stroke-width="3" stroke-linecap="round"/>
<mask id="path-45-inside-10_107_468" fill="white">
<path d="M1241.18 372.944C1243.17 374.852 1243.26 378.047 1241.11 379.779C1238.49 381.893 1235.59 383.657 1232.49 385.022C1227.86 387.06 1222.88 388.167 1217.83 388.28C1212.77 388.393 1207.74 387.509 1203.03 385.679C1198.32 383.848 1194.01 381.108 1190.36 377.613C1186.7 374.119 1183.77 369.939 1181.74 365.312C1179.7 360.686 1178.59 355.703 1178.48 350.648C1178.36 345.593 1179.25 340.566 1181.08 335.853C1182.3 332.698 1183.94 329.724 1185.93 327.007C1187.57 324.781 1190.76 324.727 1192.76 326.636L1216.97 349.79L1241.18 372.944Z"/>
</mask>
<path d="M1241.18 372.944C1243.17 374.852 1243.26 378.047 1241.11 379.779C1238.49 381.893 1235.59 383.657 1232.49 385.022C1227.86 387.06 1222.88 388.167 1217.83 388.28C1212.77 388.393 1207.74 387.509 1203.03 385.679C1198.32 383.848 1194.01 381.108 1190.36 377.613C1186.7 374.119 1183.77 369.939 1181.74 365.312C1179.7 360.686 1178.59 355.703 1178.48 350.648C1178.36 345.593 1179.25 340.566 1181.08 335.853C1182.3 332.698 1183.94 329.724 1185.93 327.007C1187.57 324.781 1190.76 324.727 1192.76 326.636L1216.97 349.79L1241.18 372.944Z" fill="black" stroke="black" stroke-width="2" mask="url(#path-45-inside-10_107_468)"/>
<defs>
<linearGradient id="paint0_linear_107_468" x1="348.204" y1="751.992" x2="348.204" y2="895.992" gradientUnits="userSpaceOnUse">
<stop stop-color="#920EFA"/>
<stop offset="1" stop-color="#FFC700" stop-opacity="0"/>
</linearGradient>
<linearGradient id="paint1_linear_107_468" x1="576.253" y1="662.527" x2="576.253" y2="806.527" gradientUnits="userSpaceOnUse">
<stop stop-color="#920EFA"/>
<stop offset="1" stop-color="#FFC700" stop-opacity="0"/>
</linearGradient>
<linearGradient id="paint2_linear_107_468" x1="1213.2" y1="848.992" x2="1213.2" y2="992.992" gradientUnits="userSpaceOnUse">
<stop stop-color="#920EFA"/>
<stop offset="1" stop-color="#FFC700" stop-opacity="0"/>
</linearGradient>
<linearGradient id="paint3_linear_107_468" x1="975.204" y1="336.992" x2="975.204" y2="480.992" gradientUnits="userSpaceOnUse">
<stop stop-color="#920EFA"/>
<stop offset="1" stop-color="#FFC700" stop-opacity="0"/>
</linearGradient>
<linearGradient id="paint4_linear_107_468" x1="1223.2" y1="271.992" x2="1223.2" y2="415.992" gradientUnits="userSpaceOnUse">
<stop stop-color="#920EFA"/>
<stop offset="1" stop-color="#FFC700" stop-opacity="0"/>
</linearGradient>
</defs>
</svg>
