<svg width="919" height="530" viewBox="0 0 919 530" fill="none" xmlns="http://www.w3.org/2000/svg">
<rect x="138.31" y="0.9999" width="486" height="198" rx="99" transform="rotate(43.7225 138.31 0.9999)" fill="#D9D9D9" stroke="#9F9F9F"/>
<circle cx="232.507" cy="228.766" r="72" transform="rotate(43.7225 232.507 228.766)" fill="#FFC700"/>
<path d="M216.763 188.802V188.802C227.896 180.652 242.19 194.207 234.108 205.39V205.39" stroke="black" stroke-width="3" stroke-linecap="round"/>
<path d="M255.066 225.434V225.434C266.199 217.284 280.492 230.839 272.411 242.022V242.022" stroke="black" stroke-width="3" stroke-linecap="round"/>
<mask id="path-5-inside-1_86_90" fill="white">
<path d="M250.481 257.717C252.477 259.626 252.565 262.821 250.414 264.552C247.789 266.666 244.891 268.43 241.794 269.795C237.167 271.834 232.184 272.941 227.129 273.054C222.075 273.166 217.047 272.282 212.334 270.452C207.621 268.622 203.315 265.881 199.661 262.387C196.007 258.892 193.077 254.713 191.039 250.086C189 245.459 187.893 240.476 187.781 235.421C187.668 230.367 188.552 225.339 190.382 220.626C191.607 217.471 193.241 214.498 195.235 211.781C196.869 209.555 200.065 209.5 202.061 211.409L226.271 234.563L250.481 257.717Z"/>
</mask>
<path d="M250.481 257.717C252.477 259.626 252.565 262.821 250.414 264.552C247.789 266.666 244.891 268.43 241.794 269.795C237.167 271.834 232.184 272.941 227.129 273.054C222.075 273.166 217.047 272.282 212.334 270.452C207.621 268.622 203.315 265.881 199.661 262.387C196.007 258.892 193.077 254.713 191.039 250.086C189 245.459 187.893 240.476 187.781 235.421C187.668 230.367 188.552 225.339 190.382 220.626C191.607 217.471 193.241 214.498 195.235 211.781C196.869 209.555 200.065 209.5 202.061 211.409L226.271 234.563L250.481 257.717Z" fill="black" stroke="black" stroke-width="2" mask="url(#path-5-inside-1_86_90)"/>
<circle cx="348.956" cy="344.285" r="72" transform="rotate(43.7225 348.956 344.285)" fill="url(#paint0_linear_86_90)"/>
<path d="M333.212 304.321V304.321C344.345 296.172 358.638 309.727 350.556 320.909V320.909" stroke="black" stroke-width="3" stroke-linecap="round"/>
<path d="M371.515 340.953V340.953C382.648 332.803 396.941 346.358 388.859 357.541V357.541" stroke="black" stroke-width="3" stroke-linecap="round"/>
<mask id="path-9-inside-2_86_90" fill="white">
<path d="M366.93 373.237C368.926 375.145 369.014 378.34 366.863 380.072C364.238 382.185 361.34 383.95 358.242 385.315C353.616 387.353 348.633 388.46 343.578 388.573C338.524 388.686 333.496 387.802 328.783 385.972C324.07 384.141 319.764 381.401 316.11 377.906C312.456 374.412 309.526 370.232 307.488 365.605C305.449 360.979 304.342 355.996 304.229 350.941C304.117 345.886 305.001 340.859 306.831 336.146C308.056 332.991 309.69 330.017 311.684 327.3C313.318 325.074 316.514 325.02 318.509 326.929L342.72 350.083L366.93 373.237Z"/>
</mask>
<path d="M366.93 373.237C368.926 375.145 369.014 378.34 366.863 380.072C364.238 382.185 361.34 383.95 358.242 385.315C353.616 387.353 348.633 388.46 343.578 388.573C338.524 388.686 333.496 387.802 328.783 385.972C324.07 384.141 319.764 381.401 316.11 377.906C312.456 374.412 309.526 370.232 307.488 365.605C305.449 360.979 304.342 355.996 304.229 350.941C304.117 345.886 305.001 340.859 306.831 336.146C308.056 332.991 309.69 330.017 311.684 327.3C313.318 325.074 316.514 325.02 318.509 326.929L342.72 350.083L366.93 373.237Z" fill="black" stroke="black" stroke-width="2" mask="url(#path-9-inside-2_86_90)"/>
<rect x="432.421" y="417.116" width="229" height="93" rx="46.5" transform="rotate(-21.6931 432.421 417.116)" fill="#D9D9D9" stroke="#9F9F9F"/>
<circle cx="548.567" cy="420.957" r="34" transform="rotate(-21.6931 548.567 420.957)" fill="#FFC700"/>
<path d="M527.955 420.547V420.547C526.64 413.828 535.683 410.181 539.105 416.111V416.111" stroke="black" stroke-width="3" stroke-linecap="round"/>
<path d="M551.185 411.306V411.306C549.87 404.587 558.913 400.941 562.335 406.87V406.87" stroke="black" stroke-width="3" stroke-linecap="round"/>
<mask id="path-14-inside-3_86_90" fill="white">
<path d="M562.124 419.869C564.69 418.848 567.677 420.116 567.936 422.865C568 423.553 568.025 424.246 568.008 424.941C567.951 427.314 567.419 429.662 566.44 431.85C565.462 434.038 564.057 436.024 562.306 437.694C560.555 439.364 558.491 440.686 556.234 441.584C553.977 442.482 551.569 442.938 549.149 442.928C546.729 442.917 544.344 442.439 542.13 441.52C539.916 440.602 537.916 439.262 536.245 437.577C535.756 437.083 535.298 436.563 534.872 436.018C533.171 433.843 534.471 430.869 537.037 429.849L549.581 424.859L562.124 419.869Z"/>
</mask>
<path d="M562.124 419.869C564.69 418.848 567.677 420.116 567.936 422.865C568 423.553 568.025 424.246 568.008 424.941C567.951 427.314 567.419 429.662 566.44 431.85C565.462 434.038 564.057 436.024 562.306 437.694C560.555 439.364 558.491 440.686 556.234 441.584C553.977 442.482 551.569 442.938 549.149 442.928C546.729 442.917 544.344 442.439 542.13 441.52C539.916 440.602 537.916 439.262 536.245 437.577C535.756 437.083 535.298 436.563 534.872 436.018C533.171 433.843 534.471 430.869 537.037 429.849L549.581 424.859L562.124 419.869Z" fill="black" stroke="black" stroke-width="2" mask="url(#path-14-inside-3_86_90)"/>
<circle cx="620.852" cy="394.354" r="34" transform="rotate(-21.6931 620.852 394.354)" fill="url(#paint1_linear_86_90)"/>
<path d="M600.8 392.644V392.644C599.486 386.43 607.912 383.039 611.021 388.578V388.578" stroke="black" stroke-width="3" stroke-linecap="round"/>
<path d="M624.03 383.404V383.404C622.716 377.189 631.142 373.798 634.251 379.338V379.338" stroke="black" stroke-width="3" stroke-linecap="round"/>
<mask id="path-18-inside-4_86_90" fill="white">
<path d="M634.225 392.8C636.791 391.78 639.773 393.043 640.09 395.787C640.177 396.533 640.219 397.284 640.215 398.037C640.204 400.457 639.726 402.842 638.808 405.056C637.89 407.27 636.55 409.27 634.864 410.941C633.179 412.612 631.181 413.922 628.984 414.795C626.788 415.669 624.436 416.09 622.063 416.033C619.691 415.976 617.343 415.444 615.155 414.465C612.967 413.487 610.981 412.082 609.311 410.331C608.791 409.786 608.306 409.211 607.856 408.61C606.202 406.398 607.501 403.432 610.067 402.411L622.146 397.606L634.225 392.8Z"/>
</mask>
<path d="M634.225 392.8C636.791 391.78 639.773 393.043 640.09 395.787C640.177 396.533 640.219 397.284 640.215 398.037C640.204 400.457 639.726 402.842 638.808 405.056C637.89 407.27 636.55 409.27 634.864 410.941C633.179 412.612 631.181 413.922 628.984 414.795C626.788 415.669 624.436 416.09 622.063 416.033C619.691 415.976 617.343 415.444 615.155 414.465C612.967 413.487 610.981 412.082 609.311 410.331C608.791 409.786 608.306 409.211 607.856 408.61C606.202 406.398 607.501 403.432 610.067 402.411L622.146 397.606L634.225 392.8Z" fill="black" stroke="black" stroke-width="2" mask="url(#path-18-inside-4_86_90)"/>
<rect x="712.616" y="344.669" width="229" height="93" rx="46.5" transform="rotate(26.1224 712.616 344.669)" fill="#D9D9D9" stroke="#9F9F9F"/>
<circle cx="787.764" cy="433.31" r="34" transform="rotate(26.1224 787.764 433.31)" fill="#FFC700"/>
<path d="M774.227 417.762V417.762C778.323 412.276 787.097 416.528 785.001 423.045V423.045" stroke="black" stroke-width="3" stroke-linecap="round"/>
<path d="M796.673 428.769V428.769C800.769 423.283 809.544 427.535 807.448 434.053V434.053" stroke="black" stroke-width="3" stroke-linecap="round"/>
<mask id="path-23-inside-5_86_90" fill="white">
<path d="M797.675 442.625C800.154 443.841 801.22 446.906 799.357 448.944C798.89 449.453 798.393 449.937 797.867 450.391C796.071 451.943 793.973 453.124 791.695 453.869C789.417 454.613 787.002 454.906 784.588 454.73C782.175 454.554 779.81 453.912 777.629 452.843C775.447 451.773 773.492 450.296 771.875 448.495C770.258 446.695 769.011 444.607 768.205 442.349C767.398 440.092 767.048 437.711 767.175 435.341C767.212 434.647 767.29 433.957 767.408 433.276C767.878 430.555 770.953 429.522 773.433 430.737L785.554 436.681L797.675 442.625Z"/>
</mask>
<path d="M797.675 442.625C800.154 443.841 801.22 446.906 799.357 448.944C798.89 449.453 798.393 449.937 797.867 450.391C796.071 451.943 793.973 453.124 791.695 453.869C789.417 454.613 787.002 454.906 784.588 454.73C782.175 454.554 779.81 453.912 777.629 452.843C775.447 451.773 773.492 450.296 771.875 448.495C770.258 446.695 769.011 444.607 768.205 442.349C767.398 440.092 767.048 437.711 767.175 435.341C767.212 434.647 767.29 433.957 767.408 433.276C767.878 430.555 770.953 429.522 773.433 430.737L785.554 436.681L797.675 442.625Z" fill="black" stroke="black" stroke-width="2" mask="url(#path-23-inside-5_86_90)"/>
<circle cx="856.018" cy="469.008" r="34" transform="rotate(26.1224 856.018 469.008)" fill="url(#paint2_linear_86_90)"/>
<path d="M843.819 453.002V453.002C847.542 447.855 855.712 451.822 853.696 457.845V457.845" stroke="black" stroke-width="3" stroke-linecap="round"/>
<path d="M866.266 464.009V464.009C869.988 458.862 878.159 462.829 876.142 468.853V468.853" stroke="black" stroke-width="3" stroke-linecap="round"/>
<mask id="path-27-inside-6_86_90" fill="white">
<path d="M866.149 477.875C868.629 479.09 869.695 482.148 867.875 484.226C867.38 484.791 866.851 485.326 866.291 485.829C864.491 487.446 862.403 488.694 860.145 489.5C857.888 490.307 855.507 490.656 853.137 490.53C850.766 490.403 848.454 489.802 846.332 488.761C844.21 487.72 842.319 486.26 840.767 484.464C839.216 482.668 838.034 480.57 837.29 478.292C836.545 476.014 836.253 473.599 836.429 471.185C836.484 470.435 836.583 469.689 836.727 468.951C837.255 466.241 840.326 465.211 842.805 466.427L854.477 472.151L866.149 477.875Z"/>
</mask>
<path d="M866.149 477.875C868.629 479.09 869.695 482.148 867.875 484.226C867.38 484.791 866.851 485.326 866.291 485.829C864.491 487.446 862.403 488.694 860.145 489.5C857.888 490.307 855.507 490.656 853.137 490.53C850.766 490.403 848.454 489.802 846.332 488.761C844.21 487.72 842.319 486.26 840.767 484.464C839.216 482.668 838.034 480.57 837.29 478.292C836.545 476.014 836.253 473.599 836.429 471.185C836.484 470.435 836.583 469.689 836.727 468.951C837.255 466.241 840.326 465.211 842.805 466.427L854.477 472.151L866.149 477.875Z" fill="black" stroke="black" stroke-width="2" mask="url(#path-27-inside-6_86_90)"/>
<defs>
<linearGradient id="paint0_linear_86_90" x1="348.956" y1="272.285" x2="348.956" y2="416.285" gradientUnits="userSpaceOnUse">
<stop stop-color="#920EFA"/>
<stop offset="1" stop-color="#FFC700" stop-opacity="0"/>
</linearGradient>
<linearGradient id="paint1_linear_86_90" x1="620.852" y1="360.354" x2="620.852" y2="428.354" gradientUnits="userSpaceOnUse">
<stop stop-color="#920EFA"/>
<stop offset="1" stop-color="#FFC700" stop-opacity="0"/>
</linearGradient>
<linearGradient id="paint2_linear_86_90" x1="856.018" y1="435.008" x2="856.018" y2="503.008" gradientUnits="userSpaceOnUse">
<stop stop-color="#920EFA"/>
<stop offset="1" stop-color="#FFC700" stop-opacity="0"/>
</linearGradient>
</defs>
</svg>
